<svg id="svg" version="1.1" xmlns="http://www.w3.org/2000/svg" xmlns:xlink="http://www.w3.org/1999/xlink" width="400" height="388.1081081081081" viewBox="0, 0, 400,388.1081081081081"><g id="svgg"><path id="path0" d="M153.241 121.826 C 145.885 124.359,143.989 134.694,150.039 139.280 C 158.481 145.679,169.225 137.918,165.952 127.785 C 164.413 123.021,158.211 120.114,153.241 121.826 M93.786 121.942 C 93.359 122.125,92.222 122.288,91.260 122.303 C 90.297 122.318,88.899 122.520,88.153 122.753 C 87.407 122.986,85.423 123.311,83.746 123.476 C 81.845 123.663,80.566 123.979,80.353 124.315 C 80.159 124.620,80.050 143.465,80.102 167.767 L 80.194 210.680 87.767 210.790 C 91.932 210.850,95.732 210.804,96.211 210.686 L 97.081 210.472 97.181 187.469 L 97.282 164.466 98.252 164.332 C 98.786 164.258,99.460 164.003,99.749 163.765 C 100.668 163.010,107.315 162.921,108.765 163.644 C 109.456 163.990,110.223 164.272,110.469 164.272 C 111.463 164.272,113.475 166.972,114.264 169.364 C 115.042 171.721,115.091 172.809,115.250 191.167 L 115.417 210.490 116.252 210.695 C 116.712 210.808,120.408 210.851,124.466 210.790 L 131.845 210.680 131.828 189.320 C 131.812 168.189,131.802 167.930,130.922 165.049 C 130.433 163.447,129.929 161.786,129.801 161.359 C 128.540 157.140,123.537 152.123,118.836 150.365 C 113.832 148.494,105.504 147.795,101.751 148.931 C 100.566 149.290,99.075 149.524,98.439 149.452 L 97.282 149.320 97.180 135.437 L 97.078 121.553 95.820 121.581 C 95.129 121.596,94.214 121.758,93.786 121.942 M194.951 121.942 C 194.631 122.149,193.567 122.321,192.586 122.324 C 191.605 122.327,189.945 122.590,188.897 122.908 C 187.848 123.226,186.092 123.489,184.994 123.491 C 183.672 123.494,182.720 123.725,182.172 124.175 L 181.346 124.854 181.450 167.767 L 181.553 210.680 189.709 210.680 L 197.864 210.680 197.966 197.961 L 198.069 185.243 198.973 185.243 C 200.938 185.243,209.463 195.668,216.491 206.666 C 219.449 211.294,218.227 210.884,228.738 210.775 L 237.864 210.680 237.774 209.818 C 237.577 207.944,227.530 192.954,222.466 186.979 C 221.104 185.372,217.829 181.721,216.505 180.334 C 215.864 179.663,214.855 178.600,214.262 177.972 L 213.184 176.830 217.294 172.590 C 223.406 166.285,228.951 160.350,233.412 155.340 L 237.389 150.874 227.529 150.765 L 217.670 150.656 216.311 152.143 C 215.047 153.526,213.141 155.720,207.767 161.977 C 204.954 165.252,200.861 169.735,199.929 170.563 C 198.033 172.246,198.058 172.572,198.058 146.172 L 198.058 121.553 196.796 121.559 C 196.102 121.563,195.272 121.735,194.951 121.942 M148.444 180.680 L 148.544 210.680 156.699 210.680 L 164.854 210.680 164.954 180.680 L 165.053 150.680 156.699 150.680 L 148.345 150.680 148.444 180.680 M276.525 161.991 C 276.514 162.126,276.767 162.863,277.087 163.629 C 277.582 164.814,277.670 168.375,277.670 187.269 L 277.671 209.515 279.984 210.194 C 281.256 210.568,282.715 210.874,283.226 210.874 C 283.738 210.874,284.671 211.053,285.301 211.273 C 288.703 212.459,306.224 213.059,310.538 212.137 C 312.710 211.673,315.706 210.712,316.791 210.132 C 317.168 209.930,317.738 209.663,318.058 209.539 C 318.379 209.414,319.165 208.967,319.806 208.545 C 320.447 208.124,321.408 207.582,321.942 207.342 C 322.767 206.970,322.813 206.868,322.248 206.656 C 321.027 206.200,310.682 195.626,310.635 194.786 C 310.591 194.005,310.584 194.004,310.400 194.757 C 310.140 195.824,309.134 196.893,308.386 196.896 C 308.046 196.897,307.266 197.159,306.655 197.478 C 305.017 198.332,295.839 198.308,294.979 197.448 C 294.073 196.542,294.067 181.316,294.973 180.565 C 295.503 180.125,295.444 180.006,294.487 179.583 C 293.316 179.066,278.175 164.330,277.158 162.718 C 276.821 162.184,276.536 161.857,276.525 161.991 M62.812 175.146 C 62.528 176.873,61.745 179.821,61.363 180.595 C 61.202 180.923,60.949 181.796,60.802 182.537 C 60.654 183.278,60.384 184.320,60.201 184.854 C 59.835 185.921,58.876 189.302,57.997 192.621 C 57.686 193.796,57.201 195.544,56.918 196.505 C 56.137 199.158,55.245 202.327,54.732 204.272 C 53.827 207.701,52.744 210.678,52.298 210.962 C 51.958 211.178,51.963 211.252,52.316 211.256 C 52.576 211.259,52.975 210.913,53.204 210.485 C 53.433 210.058,53.839 209.709,54.106 209.709 C 56.538 209.709,62.365 204.634,64.684 200.497 C 68.117 194.373,67.830 181.096,64.169 176.644 C 63.881 176.293,63.507 175.506,63.340 174.896 L 63.035 173.786 62.812 175.146 M250.591 191.691 C 240.550 196.549,244.010 211.717,255.183 211.821 C 257.609 211.843,258.392 211.627,261.159 210.168 C 266.729 207.232,267.594 197.731,262.684 193.420 C 259.362 190.503,254.486 189.806,250.591 191.691 " stroke="none" fill="#434b23" fill-rule="evenodd"></path><path id="path1" d="M288.467 121.202 C 288.379 121.464,287.104 121.627,285.146 121.627 C 282.952 121.627,281.993 121.766,282.051 122.076 C 282.099 122.332,281.552 122.567,280.777 122.623 C 280.029 122.677,278.718 122.812,277.864 122.923 L 276.311 123.125 276.405 141.465 C 276.457 151.553,276.601 160.243,276.726 160.777 C 276.950 161.742,293.275 178.252,294.005 178.252 C 294.205 178.252,294.369 178.427,294.369 178.641 C 294.369 178.854,294.627 179.029,294.942 179.029 C 295.420 179.029,295.533 177.952,295.622 172.524 C 295.727 166.112,295.740 166.020,296.579 166.048 C 297.047 166.063,297.397 165.900,297.356 165.686 C 297.315 165.471,298.155 165.142,299.223 164.954 C 300.291 164.767,301.331 164.449,301.534 164.249 C 302.246 163.544,305.630 163.804,305.637 164.563 C 305.642 165.093,305.717 165.126,305.977 164.716 C 306.176 164.401,306.406 164.343,306.546 164.570 C 306.676 164.780,307.247 164.951,307.814 164.951 C 308.382 164.951,309.002 165.228,309.191 165.566 C 309.380 165.905,309.791 166.083,310.104 165.963 C 310.423 165.840,310.778 166.018,310.912 166.367 C 311.044 166.710,311.352 166.990,311.597 166.990 C 312.029 166.990,312.668 168.195,313.197 170.006 C 313.338 170.489,313.616 170.785,313.814 170.662 C 314.019 170.536,314.175 171.362,314.175 172.579 C 314.175 173.866,314.368 174.842,314.660 175.029 C 315.396 175.500,315.352 185.225,314.615 184.941 C 314.244 184.798,314.149 184.958,314.298 185.475 C 314.600 186.520,314.015 189.337,313.517 189.239 C 313.288 189.194,313.108 189.368,313.117 189.627 C 313.157 190.856,312.977 191.482,312.641 191.274 C 312.213 191.010,311.363 192.399,311.729 192.764 C 311.864 192.899,311.692 193.010,311.347 193.010 C 309.593 193.010,320.074 204.805,323.373 206.543 C 324.533 207.155,325.068 207.104,324.801 206.408 C 324.678 206.087,324.762 205.825,324.988 205.825 C 325.483 205.825,328.155 203.134,328.155 202.636 C 328.155 202.443,328.357 202.409,328.604 202.561 C 328.876 202.730,328.947 202.668,328.784 202.404 C 328.636 202.165,328.871 201.614,329.306 201.179 C 329.741 200.744,330.097 200.132,330.097 199.818 C 330.097 199.446,330.321 199.334,330.743 199.496 C 331.170 199.659,331.297 199.593,331.116 199.302 C 330.966 199.058,331.200 198.077,331.635 197.121 C 332.071 196.165,332.427 195.125,332.427 194.811 C 332.427 194.497,332.629 194.172,332.875 194.090 C 333.281 193.955,333.469 193.211,333.560 191.387 C 333.578 191.028,333.816 190.504,334.089 190.222 C 334.428 189.872,334.560 188.661,334.505 186.414 C 334.455 184.418,334.586 183.018,334.836 182.864 C 335.166 182.660,335.414 178.919,335.122 178.544 C 334.918 178.281,334.703 176.204,334.598 173.474 C 334.534 171.807,334.282 170.243,334.037 169.998 C 333.792 169.754,333.592 169.234,333.592 168.845 C 333.592 168.455,333.270 167.220,332.877 166.100 C 332.483 164.980,332.207 163.750,332.263 163.367 C 332.319 162.984,332.117 162.575,331.814 162.459 C 331.510 162.342,331.262 161.998,331.262 161.694 C 331.262 161.390,331.000 161.040,330.680 160.917 C 330.359 160.794,330.097 160.363,330.097 159.958 C 330.097 159.554,329.741 158.867,329.306 158.432 C 328.871 157.997,328.636 157.446,328.784 157.207 C 328.947 156.943,328.876 156.882,328.604 157.050 C 328.345 157.210,328.155 157.093,328.155 156.772 C 328.155 156.291,327.391 155.464,324.296 152.597 C 323.936 152.263,323.433 152.059,323.180 152.144 C 322.926 152.229,322.718 152.021,322.718 151.683 C 322.718 151.345,322.456 151.068,322.136 151.068 C 321.816 151.068,321.551 150.850,321.547 150.583 C 321.543 150.219,321.459 150.227,321.213 150.615 C 320.949 151.032,320.839 151.013,320.649 150.518 C 320.515 150.171,319.964 149.903,319.382 149.903 C 318.545 149.903,318.436 149.801,318.801 149.361 C 319.146 148.946,319.134 148.824,318.751 148.840 C 316.317 148.939,314.886 148.692,315.073 148.205 C 315.358 147.463,300.103 147.509,299.359 148.252 C 299.092 148.519,298.397 148.738,297.814 148.738 C 297.231 148.738,296.480 149.012,296.144 149.348 C 295.589 149.903,295.534 148.632,295.534 135.368 L 295.534 120.777 292.071 120.777 C 289.907 120.777,288.555 120.936,288.467 121.202 M31.262 128.427 C 30.835 128.533,30.319 128.777,30.117 128.970 C 29.914 129.163,28.991 129.320,28.065 129.320 C 26.929 129.320,26.311 129.509,26.160 129.903 C 26.022 130.262,25.432 130.485,24.619 130.485 C 23.772 130.485,23.336 130.659,23.398 130.971 C 23.461 131.285,23.119 131.417,22.427 131.345 C 21.755 131.274,21.359 131.419,21.359 131.735 C 21.359 132.011,20.852 132.462,20.232 132.737 C 19.611 133.011,18.432 133.870,17.610 134.645 C 16.789 135.419,16.029 136.024,15.922 135.988 C 15.816 135.952,15.728 136.141,15.728 136.408 C 15.728 136.675,15.466 136.897,15.146 136.902 C 14.797 136.907,14.613 137.196,14.686 137.621 C 14.760 138.048,14.643 138.228,14.392 138.073 C 14.163 137.931,13.856 138.132,13.711 138.519 C 13.565 138.906,13.232 139.398,12.969 139.612 C 12.707 139.825,12.424 140.350,12.340 140.777 C 12.256 141.204,11.966 141.505,11.696 141.447 C 11.425 141.388,11.308 141.508,11.436 141.714 C 11.563 141.920,11.395 142.240,11.063 142.426 C 10.677 142.642,10.429 143.407,10.375 144.551 C 10.329 145.533,10.117 146.310,9.903 146.275 C 9.327 146.184,9.240 157.577,9.808 158.606 C 10.055 159.052,10.209 159.725,10.152 160.101 C 10.094 160.477,10.411 161.247,10.856 161.813 C 11.341 162.429,11.572 163.131,11.434 163.566 C 11.281 164.047,11.377 164.255,11.718 164.185 C 12.001 164.126,12.189 164.296,12.136 164.563 C 12.083 164.830,12.224 165.049,12.450 165.049 C 12.676 165.049,12.773 165.192,12.664 165.368 C 12.444 165.725,13.777 166.990,14.373 166.990 C 14.585 166.990,14.757 167.252,14.757 167.573 C 14.757 167.893,15.019 168.155,15.340 168.155 C 15.660 168.155,15.922 168.417,15.922 168.738 C 15.922 169.058,16.090 169.320,16.296 169.320 C 16.501 169.320,17.361 170.019,18.207 170.874 C 19.053 171.728,20.089 172.427,20.511 172.427 C 20.932 172.427,21.377 172.689,21.500 173.010 C 21.623 173.330,22.059 173.592,22.471 173.592 C 22.882 173.592,23.328 173.879,23.463 174.230 C 23.597 174.581,23.813 174.763,23.942 174.634 C 24.071 174.505,24.722 174.686,25.389 175.035 C 26.056 175.384,27.036 175.719,27.567 175.780 C 28.098 175.840,28.593 176.071,28.668 176.294 C 28.742 176.517,29.318 176.699,29.947 176.699 C 30.607 176.699,31.187 176.946,31.316 177.282 C 31.452 177.636,32.039 177.864,32.816 177.864 C 33.592 177.864,34.179 178.092,34.315 178.447 C 34.455 178.812,35.049 179.029,35.910 179.029 C 36.664 179.029,37.282 179.196,37.282 179.400 C 37.282 179.604,37.893 179.885,38.641 180.026 C 39.455 180.178,40.000 180.507,40.000 180.846 C 40.000 181.235,40.243 181.335,40.779 181.164 C 41.296 181.000,41.636 181.122,41.791 181.527 C 41.920 181.862,42.443 182.136,42.954 182.136 C 43.521 182.136,43.883 182.363,43.883 182.718 C 43.883 183.039,44.102 183.306,44.369 183.312 C 47.338 183.378,48.426 193.010,45.465 193.010 C 45.236 193.010,45.049 193.233,45.049 193.506 C 45.049 193.779,44.697 194.303,44.267 194.671 C 43.349 195.457,42.941 195.539,43.353 194.854 C 43.580 194.476,43.519 194.470,43.078 194.826 C 42.767 195.078,41.786 195.351,40.897 195.434 C 40.009 195.517,39.050 195.769,38.767 195.994 C 37.926 196.662,32.945 196.627,31.633 195.943 C 30.956 195.590,29.449 195.338,27.961 195.328 C 26.514 195.319,25.023 195.076,24.466 194.757 C 23.932 194.452,22.927 194.196,22.233 194.189 C 21.539 194.181,20.971 194.000,20.971 193.786 C 20.971 193.573,20.791 193.398,20.570 193.398 C 20.350 193.398,19.520 193.112,18.725 192.763 C 17.931 192.414,16.941 192.091,16.525 192.046 C 16.108 192.000,15.700 191.762,15.618 191.516 C 15.095 189.944,12.809 191.570,12.268 193.899 C 12.129 194.495,11.890 194.905,11.736 194.810 C 11.582 194.715,11.422 195.252,11.379 196.004 C 11.337 196.755,11.010 197.693,10.654 198.087 C 10.224 198.562,10.088 199.133,10.250 199.780 C 10.443 200.548,10.370 200.708,9.908 200.531 C 9.437 200.350,9.320 200.654,9.320 202.062 C 9.320 203.028,9.128 203.883,8.894 203.961 C 7.980 204.266,7.967 207.790,8.879 208.029 C 9.335 208.148,9.709 208.451,9.709 208.701 C 9.709 208.951,10.277 209.198,10.971 209.250 C 11.665 209.302,12.289 209.509,12.358 209.709 C 12.427 209.909,13.081 210.185,13.811 210.322 C 14.541 210.459,15.043 210.726,14.925 210.916 C 14.707 211.269,15.396 211.404,17.036 211.331 C 17.541 211.308,18.450 211.545,19.055 211.858 C 19.660 212.171,20.863 212.427,21.728 212.427 C 22.593 212.427,23.301 212.573,23.301 212.751 C 23.301 213.274,23.757 213.301,35.340 213.465 C 46.384 213.622,48.394 213.516,47.954 212.804 C 47.817 212.581,48.446 212.427,49.492 212.427 C 50.729 212.427,51.262 212.267,51.262 211.897 C 51.262 211.605,51.612 210.923,52.039 210.379 C 52.483 209.815,52.816 208.804,52.816 208.020 C 52.816 207.265,52.970 206.552,53.159 206.435 C 53.348 206.319,53.620 205.439,53.764 204.480 C 53.908 203.521,54.190 202.635,54.391 202.510 C 54.593 202.386,54.757 201.840,54.757 201.298 C 54.757 200.755,55.005 199.761,55.307 199.088 C 55.610 198.415,55.947 197.340,56.056 196.699 C 56.367 194.874,57.126 192.160,57.715 190.764 C 58.010 190.062,58.252 188.980,58.252 188.359 C 58.252 187.738,58.407 187.135,58.596 187.018 C 58.785 186.901,59.057 186.021,59.201 185.062 C 59.345 184.104,59.627 183.217,59.828 183.093 C 60.030 182.969,60.195 182.397,60.197 181.822 C 60.198 181.247,60.460 180.276,60.779 179.664 C 61.098 179.053,61.359 178.126,61.359 177.606 C 61.359 177.086,61.619 176.157,61.938 175.542 C 62.878 173.724,61.847 170.485,60.328 170.485 C 60.041 170.485,59.806 170.235,59.806 169.929 C 59.806 169.623,59.456 169.262,59.029 169.126 C 58.602 168.991,58.252 168.717,58.252 168.518 C 58.252 168.318,57.903 168.155,57.476 168.155 C 57.030 168.155,56.699 167.896,56.699 167.548 C 56.699 167.142,56.410 166.982,55.825 167.063 C 55.286 167.138,54.989 166.999,55.049 166.699 C 55.111 166.385,54.667 166.214,53.786 166.214 C 52.837 166.214,52.427 166.038,52.427 165.631 C 52.427 165.243,52.039 165.049,51.262 165.049 C 50.571 165.049,50.097 164.845,50.097 164.549 C 50.097 164.274,49.707 164.019,49.231 163.984 C 48.754 163.948,48.143 163.615,47.872 163.244 C 47.600 162.873,47.379 162.781,47.379 163.038 C 47.379 163.576,44.672 162.589,44.243 161.895 C 44.105 161.672,43.430 161.578,42.743 161.687 C 41.770 161.840,41.540 161.761,41.705 161.330 C 41.857 160.933,41.613 160.777,40.839 160.777 C 40.245 160.777,39.421 160.520,39.006 160.207 C 38.592 159.893,37.753 159.631,37.143 159.624 C 36.399 159.616,36.097 159.446,36.226 159.110 C 36.348 158.792,36.059 158.579,35.436 158.528 C 34.896 158.483,34.222 158.141,33.939 157.767 C 33.655 157.393,33.417 157.210,33.410 157.359 C 33.381 158.000,30.737 155.012,30.109 153.628 C 29.469 152.218,29.465 152.034,30.050 151.044 C 30.396 150.457,30.680 149.698,30.680 149.358 C 30.680 149.017,30.942 148.738,31.262 148.738 C 31.583 148.738,31.845 148.563,31.845 148.350 C 31.845 147.941,33.243 146.408,33.615 146.408 C 33.735 146.408,33.709 146.626,33.558 146.893 C 33.339 147.282,33.389 147.282,33.807 146.893 C 34.095 146.626,34.984 146.408,35.783 146.408 C 36.582 146.408,37.344 146.233,37.476 146.019 C 37.608 145.806,39.181 145.631,40.971 145.631 C 42.761 145.631,44.334 145.806,44.466 146.019 C 44.598 146.233,45.898 146.408,47.354 146.408 C 49.234 146.408,50.142 146.577,50.485 146.990 C 50.751 147.311,51.363 147.573,51.845 147.573 C 52.326 147.573,52.938 147.835,53.204 148.155 C 53.470 148.476,54.172 148.738,54.763 148.738 C 55.361 148.738,55.938 148.997,56.063 149.320 C 56.630 150.797,59.806 149.770,59.806 148.110 C 59.806 147.637,59.985 147.190,60.203 147.117 C 60.422 147.044,60.708 146.287,60.838 145.434 C 60.969 144.581,61.309 143.614,61.594 143.284 C 61.878 142.954,62.154 142.124,62.206 141.439 C 62.258 140.754,62.431 140.194,62.589 140.194 C 62.748 140.194,62.995 139.569,63.138 138.804 C 63.282 138.039,63.595 137.338,63.835 137.246 C 65.087 136.766,64.102 132.816,62.731 132.816 C 62.484 132.816,61.931 132.489,61.502 132.089 C 61.073 131.689,60.210 131.378,59.584 131.397 C 58.882 131.418,58.484 131.251,58.544 130.959 C 58.597 130.698,58.510 130.506,58.350 130.531 C 56.815 130.774,55.087 130.422,55.284 129.908 C 55.406 129.590,55.381 129.348,55.229 129.371 C 53.574 129.618,50.874 129.240,50.874 128.762 C 50.874 128.208,33.358 127.908,31.262 128.427 M357.006 148.053 C 357.100 148.503,356.294 148.674,353.592 148.778 C 352.524 148.819,351.388 149.075,351.068 149.347 C 350.748 149.620,349.874 149.900,349.126 149.970 L 347.767 150.097 347.839 152.613 C 347.881 154.059,348.096 155.191,348.345 155.274 C 348.605 155.360,348.497 155.632,348.079 155.949 C 347.487 156.398,347.474 156.482,347.992 156.493 C 348.467 156.502,348.625 157.005,348.695 158.726 C 348.744 159.948,348.964 161.164,349.183 161.428 C 349.402 161.692,349.452 162.117,349.294 162.373 C 349.112 162.667,349.171 162.737,349.455 162.561 C 349.760 162.372,349.903 162.709,349.903 163.619 C 349.903 164.937,350.787 166.205,351.219 165.507 C 351.340 165.311,352.357 165.029,353.479 164.880 C 354.601 164.731,355.614 164.457,355.730 164.270 C 355.845 164.083,357.206 163.893,358.753 163.848 C 360.300 163.802,362.020 163.530,362.575 163.242 C 363.953 162.527,368.713 162.557,369.829 163.288 C 370.307 163.601,371.306 163.897,372.048 163.946 C 372.922 164.003,373.764 164.406,374.436 165.089 C 375.007 165.669,375.603 166.029,375.760 165.888 C 375.917 165.746,375.937 165.935,375.804 166.306 C 375.656 166.719,375.739 166.945,376.018 166.889 C 376.269 166.838,376.644 167.451,376.850 168.252 C 377.056 169.053,377.368 169.709,377.544 169.709 C 377.720 169.709,377.864 170.320,377.864 171.068 C 377.864 172.103,377.702 172.427,377.184 172.428 C 364.241 172.442,359.768 172.604,359.298 173.073 C 359.013 173.359,358.193 173.592,357.476 173.592 C 356.759 173.592,355.917 173.848,355.605 174.160 C 355.292 174.472,354.406 174.770,353.635 174.822 C 352.795 174.878,352.233 175.118,352.233 175.419 C 352.233 175.696,352.046 175.922,351.817 175.922 C 351.588 175.922,351.146 176.177,350.835 176.488 C 350.523 176.800,350.027 176.962,349.733 176.849 C 349.430 176.732,349.098 176.951,348.969 177.351 C 348.845 177.740,348.230 178.401,347.603 178.820 C 346.976 179.238,346.548 179.719,346.652 179.888 C 346.757 180.056,346.657 180.194,346.431 180.194 C 345.609 180.194,345.428 180.338,344.913 181.401 C 344.625 181.995,344.101 182.559,343.748 182.652 C 343.202 182.797,343.211 182.829,343.809 182.868 C 344.196 182.892,344.402 183.090,344.268 183.307 C 344.134 183.524,343.898 183.624,343.745 183.529 C 343.591 183.435,343.428 183.807,343.383 184.358 C 343.337 184.908,343.082 185.621,342.815 185.942 C 342.123 186.775,342.124 199.671,342.816 199.902 C 343.083 199.992,343.301 200.640,343.301 201.344 C 343.301 202.048,343.563 202.841,343.883 203.107 C 344.204 203.373,344.466 203.831,344.466 204.125 C 344.466 204.419,344.747 204.660,345.090 204.660 C 345.485 204.660,345.632 204.874,345.491 205.243 C 345.368 205.563,345.452 205.825,345.678 205.825 C 346.196 205.825,347.543 207.415,347.560 208.046 C 347.567 208.306,347.835 208.419,348.155 208.296 C 348.476 208.173,348.738 208.258,348.738 208.486 C 348.738 208.713,349.524 209.360,350.485 209.923 C 351.447 210.487,352.233 211.116,352.233 211.322 C 352.233 211.528,352.410 211.587,352.626 211.453 C 352.843 211.320,353.568 211.484,354.239 211.819 C 354.910 212.153,356.200 212.427,357.105 212.427 C 358.211 212.427,358.825 212.619,358.975 213.010 C 359.167 213.510,360.869 213.592,371.007 213.592 C 382.788 213.592,385.806 213.411,384.789 212.767 C 384.479 212.571,385.371 212.437,387.010 212.433 C 388.654 212.430,389.956 212.233,390.271 211.942 C 390.696 211.547,390.734 211.565,390.476 212.039 C 390.193 212.557,390.241 212.557,390.904 212.039 C 391.341 211.698,392.457 211.456,393.592 211.456 C 395.338 211.456,395.581 211.349,396.001 210.388 C 396.257 209.801,396.651 209.320,396.874 209.320 C 397.152 209.320,397.282 203.766,397.282 191.822 C 397.282 181.121,397.141 174.410,396.920 174.547 C 396.275 174.945,396.155 174.191,396.092 169.359 C 396.048 165.914,395.894 164.551,395.536 164.413 C 395.258 164.306,395.033 163.556,395.021 162.691 C 395.010 161.848,394.742 160.900,394.427 160.585 C 394.111 160.270,393.900 159.587,393.957 159.069 C 394.034 158.364,393.912 158.183,393.471 158.353 C 393.090 158.499,392.980 158.420,393.159 158.130 C 393.319 157.873,392.850 157.096,392.058 156.304 C 391.300 155.546,390.680 154.832,390.680 154.718 C 390.680 154.292,387.854 151.865,387.566 152.043 C 387.401 152.145,387.166 151.967,387.043 151.648 C 386.921 151.329,386.465 151.068,386.032 151.068 C 385.589 151.068,385.243 150.812,385.243 150.485 C 385.243 150.128,384.879 149.903,384.303 149.903 C 383.787 149.903,382.869 149.648,382.264 149.336 C 381.660 149.024,380.677 148.669,380.081 148.548 C 379.485 148.426,379.089 148.178,379.202 147.996 C 379.314 147.814,374.347 147.666,368.165 147.666 C 360.890 147.665,356.953 147.802,357.006 148.053 M373.987 186.117 C 373.991 186.445,374.109 186.417,374.354 186.030 C 374.663 185.541,374.753 185.556,374.975 186.134 C 375.117 186.506,375.433 186.786,375.675 186.757 C 377.951 186.484,377.895 186.342,377.778 192.136 L 377.670 197.476 376.459 197.355 C 375.637 197.273,375.172 197.429,375.014 197.840 C 374.668 198.743,367.767 198.738,367.767 197.834 C 367.767 197.359,367.415 197.248,366.191 197.336 C 365.325 197.398,364.495 197.257,364.347 197.022 C 364.199 196.787,363.763 196.531,363.378 196.453 C 362.992 196.375,362.702 196.152,362.733 195.957 C 362.763 195.763,362.510 195.448,362.171 195.258 C 361.227 194.730,361.330 190.677,362.329 189.039 C 362.755 188.339,363.105 187.925,363.105 188.118 C 363.106 188.311,363.443 188.081,363.854 187.607 C 364.265 187.133,364.702 186.757,364.825 186.771 C 366.061 186.912,368.534 186.733,368.498 186.505 C 368.377 185.742,368.729 185.631,371.262 185.631 C 373.175 185.631,373.982 185.775,373.987 186.117 " stroke="none" fill="#848b3c" fill-rule="evenodd"></path><path id="path2" d="M109.903 3.301 C 109.903 4.595,109.752 5.049,109.320 5.049 C 108.873 5.049,108.738 5.545,108.738 7.184 C 108.738 8.824,108.603 9.320,108.155 9.320 C 107.737 9.320,107.573 9.747,107.573 10.832 C 107.573 11.818,107.370 12.422,106.990 12.568 C 106.589 12.722,106.408 13.348,106.408 14.579 C 106.408 15.650,106.174 16.600,105.825 16.949 C 105.505 17.269,105.243 18.130,105.243 18.863 C 105.243 19.595,105.068 20.194,104.854 20.194 C 104.641 20.194,104.466 21.155,104.466 22.330 C 104.466 23.970,104.331 24.466,103.883 24.466 C 103.466 24.466,103.301 24.892,103.301 25.972 C 103.301 26.837,103.053 27.684,102.718 27.961 C 102.367 28.253,102.136 29.103,102.136 30.103 C 102.136 31.219,101.945 31.835,101.553 31.985 C 101.142 32.143,100.971 32.784,100.971 34.163 C 100.971 35.237,100.796 36.117,100.583 36.117 C 100.369 36.117,100.194 36.903,100.194 37.864 C 100.194 39.159,100.043 39.612,99.612 39.612 C 99.164 39.612,99.029 40.108,99.029 41.748 C 99.029 43.387,98.894 43.883,98.447 43.883 C 98.029 43.883,97.864 44.310,97.864 45.395 C 97.864 46.381,97.661 46.985,97.282 47.131 C 96.881 47.285,96.699 47.911,96.699 49.142 C 96.699 50.213,96.466 51.163,96.117 51.512 C 95.796 51.832,95.534 52.693,95.534 53.426 C 95.534 54.158,95.359 54.757,95.146 54.757 C 94.932 54.757,94.757 55.718,94.757 56.893 C 94.757 58.533,94.622 59.029,94.175 59.029 C 93.745 59.029,93.592 59.478,93.592 60.735 C 93.592 61.893,93.405 62.513,93.010 62.665 C 92.613 62.817,92.427 63.437,92.427 64.606 C 92.427 65.776,92.241 66.396,91.845 66.548 C 91.435 66.705,91.262 67.343,91.262 68.693 C 91.262 69.750,91.076 70.677,90.849 70.753 C 90.621 70.828,90.336 71.629,90.215 72.533 C 90.094 73.436,89.843 74.175,89.658 74.175 C 89.472 74.175,89.320 75.136,89.320 76.311 C 89.320 77.950,89.185 78.447,88.738 78.447 C 88.316 78.447,88.155 78.879,88.155 80.012 C 88.155 81.046,87.957 81.654,87.573 81.801 C 87.155 81.962,86.990 82.616,86.990 84.119 C 86.990 85.722,86.854 86.214,86.408 86.214 C 85.987 86.214,85.825 86.645,85.825 87.767 C 85.825 88.621,85.650 89.320,85.437 89.320 C 85.223 89.320,85.049 90.282,85.049 91.456 C 85.049 93.096,84.913 93.592,84.466 93.592 C 84.037 93.592,83.883 94.041,83.883 95.298 C 83.883 96.456,83.696 97.076,83.301 97.228 C 82.890 97.386,82.718 98.027,82.718 99.405 C 82.718 100.883,82.577 101.359,82.136 101.359 C 81.711 101.359,81.550 101.807,81.541 103.010 C 81.534 103.917,81.272 104.999,80.959 105.414 C 80.645 105.829,80.388 106.746,80.388 107.453 C 80.388 108.160,80.214 108.738,80.000 108.738 C 79.786 108.738,79.612 109.699,79.612 110.874 C 79.612 112.513,79.476 113.010,79.029 113.010 C 78.598 113.010,78.447 113.463,78.447 114.757 C 78.447 116.052,78.296 116.505,77.864 116.505 C 77.417 116.505,77.282 117.001,77.282 118.641 C 77.282 120.280,77.146 120.777,76.699 120.777 C 76.278 120.777,76.117 121.208,76.117 122.330 C 76.117 123.184,75.964 123.883,75.778 123.883 C 75.591 123.883,75.351 124.794,75.244 125.906 C 75.137 127.018,74.853 127.994,74.612 128.074 C 74.372 128.154,74.175 128.973,74.175 129.894 C 74.175 131.023,73.985 131.640,73.592 131.791 C 73.181 131.949,73.010 132.590,73.010 133.968 C 73.010 135.446,72.868 135.922,72.427 135.922 C 71.998 135.922,71.845 136.370,71.845 137.622 C 71.845 138.660,71.618 139.511,71.262 139.806 C 70.928 140.083,70.680 140.930,70.680 141.795 C 70.680 142.623,70.505 143.301,70.291 143.301 C 70.078 143.301,69.903 144.262,69.903 145.437 C 69.903 147.077,69.768 147.573,69.320 147.573 C 68.889 147.573,68.738 148.026,68.738 149.320 C 68.738 150.615,68.587 151.068,68.155 151.068 C 67.708 151.068,67.573 151.564,67.573 153.204 C 67.573 154.844,67.437 155.340,66.990 155.340 C 66.587 155.340,66.408 155.745,66.408 156.655 C 66.408 157.378,66.147 158.470,65.828 159.082 C 65.509 159.694,65.246 160.762,65.245 161.456 C 65.244 162.150,65.068 162.718,64.854 162.718 C 64.641 162.718,64.466 163.486,64.466 164.424 C 64.466 165.583,64.279 166.202,63.883 166.354 C 63.473 166.512,63.301 167.153,63.301 168.532 C 63.301 170.195,63.191 170.485,62.561 170.485 C 61.801 170.485,62.810 172.909,65.309 177.087 C 68.606 182.600,68.736 194.385,65.567 200.401 C 63.567 204.197,58.869 208.657,55.534 209.925 C 51.729 211.372,50.425 212.646,50.184 215.150 C 50.082 216.216,49.846 217.087,49.659 217.087 C 49.473 217.087,49.320 217.786,49.320 218.641 C 49.320 219.763,49.159 220.194,48.738 220.194 C 48.291 220.194,48.155 220.690,48.155 222.330 C 48.155 223.970,48.020 224.466,47.573 224.466 C 47.150 224.466,46.990 224.901,46.990 226.047 C 46.990 226.935,46.735 227.884,46.408 228.211 C 46.065 228.553,45.825 229.502,45.825 230.513 C 45.825 231.459,45.650 232.233,45.437 232.233 C 45.223 232.233,45.049 232.913,45.049 233.745 C 45.049 234.730,44.846 235.335,44.466 235.480 C 44.055 235.638,43.883 236.279,43.883 237.658 C 43.883 239.136,43.742 239.612,43.301 239.612 C 42.879 239.612,42.718 240.046,42.718 241.193 C 42.718 242.080,42.463 243.029,42.136 243.356 C 41.812 243.680,41.553 244.629,41.553 245.492 C 41.553 246.355,41.294 247.305,40.971 247.628 C 40.628 247.971,40.388 248.920,40.388 249.931 C 40.388 250.877,40.214 251.650,40.000 251.650 C 39.786 251.650,39.612 252.350,39.612 253.204 C 39.612 254.326,39.450 254.757,39.029 254.757 C 38.582 254.757,38.447 255.254,38.447 256.893 C 38.447 258.533,38.311 259.029,37.864 259.029 C 37.435 259.029,37.282 259.478,37.282 260.735 C 37.282 261.893,37.095 262.513,36.699 262.665 C 36.288 262.822,36.117 263.464,36.117 264.842 C 36.117 265.917,35.942 266.796,35.728 266.796 C 35.515 266.796,35.340 267.287,35.340 267.887 C 35.340 268.487,35.083 269.317,34.770 269.732 C 34.456 270.146,34.194 271.316,34.187 272.330 C 34.178 273.705,34.027 274.175,33.592 274.175 C 33.163 274.175,33.010 274.623,33.010 275.875 C 33.010 276.912,32.783 277.763,32.427 278.058 C 32.076 278.350,31.845 279.200,31.845 280.200 C 31.845 281.316,31.654 281.932,31.262 282.082 C 30.851 282.240,30.680 282.881,30.680 284.260 C 30.680 285.334,30.505 286.214,30.291 286.214 C 30.078 286.214,29.903 286.894,29.903 287.725 C 29.903 288.711,29.700 289.315,29.320 289.461 C 28.912 289.618,28.738 290.255,28.738 291.597 C 28.738 292.938,28.564 293.576,28.155 293.733 C 27.774 293.879,27.573 294.484,27.573 295.480 C 27.573 296.477,27.371 297.082,26.990 297.228 C 26.589 297.382,26.408 298.008,26.408 299.239 C 26.408 300.310,26.174 301.260,25.825 301.609 C 25.505 301.929,25.243 302.693,25.243 303.306 C 25.243 303.919,25.068 304.528,24.854 304.660 C 24.641 304.792,24.466 305.745,24.466 306.777 C 24.466 308.088,24.290 308.722,23.883 308.878 C 23.503 309.024,23.301 309.629,23.301 310.620 C 23.301 311.495,23.054 312.343,22.718 312.621 C 22.367 312.913,22.136 313.763,22.136 314.763 C 22.136 315.879,21.945 316.495,21.553 316.645 C 21.142 316.803,20.971 317.444,20.971 318.823 C 20.971 319.897,20.796 320.777,20.583 320.777 C 20.369 320.777,20.194 321.457,20.194 322.289 C 20.194 323.274,19.991 323.878,19.612 324.024 C 19.200 324.182,19.029 324.824,19.029 326.214 C 19.029 327.603,18.858 328.245,18.447 328.403 C 18.071 328.547,17.864 329.148,17.864 330.097 C 17.864 331.046,17.657 331.647,17.282 331.791 C 16.873 331.948,16.699 332.585,16.699 333.927 C 16.699 335.268,16.525 335.906,16.117 336.063 C 15.732 336.210,15.534 336.819,15.534 337.852 C 15.534 338.713,15.359 339.417,15.146 339.417 C 14.932 339.417,14.757 340.297,14.757 341.371 C 14.757 342.750,14.586 343.391,14.175 343.549 C 13.808 343.690,13.588 344.297,13.580 345.187 C 13.573 345.965,13.311 346.941,12.997 347.356 C 12.684 347.770,12.427 348.757,12.427 349.547 C 12.427 350.467,12.217 351.065,11.845 351.208 C 11.435 351.365,11.262 352.004,11.262 353.354 C 11.262 354.410,11.076 355.337,10.849 355.413 C 10.621 355.489,10.336 356.290,10.215 357.193 C 10.094 358.096,9.843 358.835,9.658 358.835 C 9.472 358.835,9.320 359.796,9.320 360.971 C 9.320 362.611,9.185 363.107,8.738 363.107 C 8.320 363.107,8.155 363.534,8.155 364.619 C 8.155 365.604,7.953 366.208,7.573 366.354 C 7.164 366.511,6.990 367.148,6.990 368.490 C 6.990 369.832,6.816 370.469,6.408 370.626 C 6.023 370.773,5.825 371.382,5.825 372.415 C 5.825 373.276,5.650 373.981,5.437 373.981 C 5.223 373.981,5.049 374.942,5.049 376.117 C 5.049 377.756,4.913 378.252,4.466 378.252 C 4.048 378.252,3.883 378.679,3.883 379.758 C 3.883 380.623,3.635 381.470,3.301 381.748 C 2.959 382.032,2.718 382.879,2.718 383.803 C 2.718 384.730,2.451 385.671,2.067 386.095 C 1.326 386.914,1.634 387.394,3.136 387.764 C 3.809 387.931,4.300 387.813,4.639 387.404 C 4.968 387.008,5.789 386.796,6.996 386.796 C 8.285 386.796,8.917 386.619,9.072 386.214 C 9.219 385.831,9.825 385.631,10.834 385.631 C 11.683 385.631,12.633 385.370,12.954 385.049 C 13.281 384.722,14.230 384.466,15.118 384.466 C 16.264 384.466,16.699 384.306,16.699 383.883 C 16.699 383.436,17.195 383.301,18.835 383.301 C 20.010 383.301,20.971 383.148,20.971 382.962 C 20.971 382.776,21.881 382.536,22.993 382.429 C 24.106 382.322,25.081 382.038,25.162 381.797 C 25.242 381.556,25.997 381.359,26.841 381.359 C 27.845 381.359,28.451 381.158,28.597 380.777 C 28.758 380.359,29.412 380.194,30.915 380.194 C 32.518 380.194,33.010 380.057,33.010 379.612 C 33.010 379.172,33.482 379.029,34.929 379.029 C 35.984 379.029,36.955 378.854,37.087 378.641 C 37.219 378.427,37.934 378.252,38.676 378.252 C 39.516 378.252,40.109 378.033,40.248 377.670 C 40.408 377.254,41.058 377.087,42.524 377.087 C 43.991 377.087,44.641 376.921,44.801 376.505 C 44.957 376.096,45.595 375.922,46.937 375.922 C 48.278 375.922,48.916 375.748,49.072 375.340 C 49.226 374.940,49.851 374.757,51.068 374.757 C 52.285 374.757,52.910 374.575,53.063 374.175 C 53.215 373.779,53.835 373.592,54.993 373.592 C 55.931 373.592,56.699 373.417,56.699 373.204 C 56.699 372.990,57.473 372.816,58.419 372.816 C 59.430 372.816,60.379 372.575,60.721 372.233 C 61.070 371.884,62.020 371.650,63.091 371.650 C 64.322 371.650,64.948 371.469,65.102 371.068 C 65.248 370.687,65.853 370.485,66.850 370.485 C 67.846 370.485,68.451 370.284,68.597 369.903 C 68.758 369.485,69.412 369.320,70.915 369.320 C 72.518 369.320,73.010 369.184,73.010 368.738 C 73.010 368.291,73.506 368.155,75.146 368.155 C 76.320 368.155,77.282 367.981,77.282 367.767 C 77.282 367.553,77.962 367.379,78.793 367.379 C 79.779 367.379,80.383 367.176,80.529 366.796 C 80.686 366.387,81.323 366.214,82.665 366.214 C 84.006 366.214,84.644 366.040,84.801 365.631 C 84.957 365.222,85.595 365.049,86.937 365.049 C 88.278 365.049,88.916 364.875,89.072 364.466 C 89.230 364.055,89.871 363.883,91.250 363.883 C 92.325 363.883,93.204 363.709,93.204 363.495 C 93.204 363.282,93.908 363.107,94.769 363.107 C 95.803 363.107,96.411 362.909,96.559 362.524 C 96.715 362.116,97.353 361.942,98.695 361.942 C 100.036 361.942,100.674 361.768,100.830 361.359 C 100.987 360.951,101.625 360.777,102.966 360.777 C 104.308 360.777,104.945 360.603,105.102 360.194 C 105.254 359.799,105.874 359.612,107.032 359.612 C 108.289 359.612,108.738 359.459,108.738 359.029 C 108.738 358.582,109.234 358.447,110.874 358.447 C 112.049 358.447,113.010 358.294,113.010 358.108 C 113.010 357.921,113.920 357.681,115.032 357.574 C 116.144 357.468,117.120 357.183,117.200 356.942 C 117.281 356.702,118.018 356.505,118.840 356.505 C 119.661 356.505,120.595 356.243,120.915 355.922 C 121.237 355.600,122.187 355.340,123.038 355.340 C 124.048 355.340,124.654 355.140,124.801 354.757 C 124.957 354.349,125.595 354.175,126.937 354.175 C 128.278 354.175,128.916 354.001,129.072 353.592 C 129.230 353.181,129.871 353.010,131.250 353.010 C 132.325 353.010,133.204 352.835,133.204 352.621 C 133.204 352.408,133.908 352.233,134.769 352.233 C 135.803 352.233,136.411 352.035,136.559 351.650 C 136.719 351.232,137.373 351.068,138.877 351.068 C 140.479 351.068,140.971 350.931,140.971 350.485 C 140.971 350.038,141.467 349.903,143.107 349.903 C 144.746 349.903,145.243 349.768,145.243 349.320 C 145.243 348.889,145.696 348.738,146.990 348.738 C 147.951 348.738,148.738 348.563,148.738 348.350 C 148.738 348.136,149.512 347.961,150.458 347.961 C 151.469 347.961,152.418 347.721,152.760 347.379 C 153.109 347.030,154.059 346.796,155.130 346.796 C 156.361 346.796,156.987 346.615,157.141 346.214 C 157.284 345.841,157.883 345.631,158.802 345.631 C 159.593 345.631,160.579 345.374,160.994 345.061 C 161.408 344.747,162.384 344.485,163.162 344.478 C 164.053 344.471,164.660 344.250,164.801 343.883 C 164.958 343.474,165.597 343.301,166.955 343.301 C 168.017 343.301,168.980 343.149,169.094 342.964 C 169.209 342.779,170.131 342.534,171.143 342.420 C 172.156 342.306,173.048 342.020,173.126 341.786 C 173.205 341.551,174.040 341.359,174.984 341.359 C 176.250 341.359,176.699 341.207,176.699 340.777 C 176.699 340.330,177.195 340.194,178.835 340.194 C 180.475 340.194,180.971 340.059,180.971 339.612 C 180.971 339.164,181.467 339.029,183.107 339.029 C 184.746 339.029,185.243 338.894,185.243 338.447 C 185.243 338.015,185.696 337.864,186.990 337.864 C 187.951 337.864,188.738 337.689,188.738 337.476 C 188.738 337.262,189.617 337.087,190.692 337.087 C 192.070 337.087,192.712 336.916,192.869 336.505 C 193.026 336.096,193.664 335.922,195.005 335.922 C 196.347 335.922,196.984 335.748,197.141 335.340 C 197.298 334.931,197.935 334.757,199.277 334.757 C 200.619 334.757,201.256 334.583,201.413 334.175 C 201.558 333.797,202.160 333.592,203.125 333.592 C 203.944 333.592,204.722 333.417,204.854 333.204 C 204.986 332.990,205.750 332.816,206.551 332.816 C 207.352 332.816,208.346 332.559,208.761 332.245 C 209.175 331.932,210.236 331.670,211.117 331.663 C 212.055 331.656,212.921 331.409,213.204 331.068 C 213.482 330.733,214.328 330.485,215.193 330.485 C 216.273 330.485,216.699 330.321,216.699 329.903 C 216.699 329.456,217.195 329.320,218.835 329.320 C 220.475 329.320,220.971 329.185,220.971 328.738 C 220.971 328.291,221.467 328.155,223.107 328.155 C 224.282 328.155,225.243 327.981,225.243 327.767 C 225.243 327.553,225.908 327.379,226.722 327.379 C 227.535 327.379,228.540 327.122,228.955 326.808 C 229.370 326.495,230.370 326.233,231.177 326.226 C 232.116 326.218,232.726 326.003,232.869 325.631 C 233.030 325.213,233.684 325.049,235.187 325.049 C 236.790 325.049,237.282 324.912,237.282 324.466 C 237.282 324.025,237.758 323.883,239.235 323.883 C 240.614 323.883,241.255 323.712,241.413 323.301 C 241.558 322.923,242.160 322.718,243.125 322.718 C 243.944 322.718,244.722 322.544,244.854 322.330 C 244.986 322.117,245.939 321.942,246.972 321.942 C 248.282 321.942,248.916 321.766,249.072 321.359 C 249.229 320.951,249.867 320.777,251.208 320.777 C 252.550 320.777,253.187 320.603,253.344 320.194 C 253.492 319.810,254.100 319.612,255.133 319.612 C 256.266 319.612,256.699 319.451,256.699 319.029 C 256.699 318.582,257.195 318.447,258.835 318.447 C 260.010 318.447,260.971 318.294,260.971 318.108 C 260.971 317.921,261.881 317.681,262.993 317.574 C 264.106 317.468,265.081 317.183,265.162 316.942 C 265.242 316.702,265.959 316.505,266.754 316.505 C 267.550 316.505,268.540 316.248,268.955 315.935 C 269.370 315.621,270.451 315.359,271.359 315.352 C 272.562 315.343,273.010 315.182,273.010 314.757 C 273.010 314.310,273.506 314.175,275.146 314.175 C 276.785 314.175,277.282 314.039,277.282 313.592 C 277.282 313.153,277.754 313.010,279.200 313.010 C 280.256 313.010,281.227 312.835,281.359 312.621 C 281.491 312.408,282.179 312.233,282.888 312.233 C 283.597 312.233,284.394 311.971,284.660 311.650 C 284.966 311.282,285.823 311.068,286.996 311.068 C 288.285 311.068,288.917 310.891,289.072 310.485 C 289.230 310.074,289.873 309.903,291.262 309.903 C 292.652 309.903,293.294 309.732,293.452 309.320 C 293.596 308.945,294.197 308.738,295.146 308.738 C 296.094 308.738,296.695 308.531,296.839 308.155 C 296.997 307.744,297.638 307.573,299.017 307.573 C 300.092 307.573,300.971 307.398,300.971 307.184 C 300.971 306.971,301.850 306.796,302.925 306.796 C 304.303 306.796,304.945 306.625,305.102 306.214 C 305.253 305.820,305.871 305.631,307.004 305.631 C 307.978 305.631,308.927 305.387,309.265 305.049 C 309.592 304.722,310.541 304.466,311.429 304.466 C 312.575 304.466,313.010 304.306,313.010 303.883 C 313.010 303.436,313.506 303.301,315.146 303.301 C 316.320 303.301,317.282 303.148,317.282 302.962 C 317.282 302.776,318.192 302.536,319.304 302.429 C 320.416 302.322,321.392 302.038,321.472 301.797 C 321.552 301.556,322.284 301.359,323.098 301.359 C 324.054 301.359,324.656 301.153,324.801 300.777 C 324.959 300.365,325.601 300.194,326.990 300.194 C 328.380 300.194,329.022 300.023,329.180 299.612 C 329.337 299.203,329.974 299.029,331.316 299.029 C 332.658 299.029,333.295 298.855,333.452 298.447 C 333.603 298.053,334.221 297.864,335.358 297.864 C 336.284 297.864,337.150 297.689,337.282 297.476 C 337.414 297.262,338.216 297.087,339.064 297.087 C 340.077 297.087,340.684 296.887,340.830 296.505 C 340.991 296.087,341.645 295.922,343.148 295.922 C 344.751 295.922,345.243 295.786,345.243 295.340 C 345.243 294.899,345.719 294.757,347.197 294.757 C 348.575 294.757,349.216 294.586,349.374 294.175 C 349.526 293.779,350.145 293.592,351.304 293.592 C 352.561 293.592,353.010 293.439,353.010 293.010 C 353.010 292.563,353.506 292.427,355.146 292.427 C 356.320 292.427,357.282 292.252,357.282 292.039 C 357.282 291.825,358.055 291.650,359.001 291.650 C 360.012 291.650,360.961 291.410,361.304 291.068 C 361.624 290.748,362.516 290.485,363.285 290.485 C 364.171 290.485,364.767 290.272,364.908 289.903 C 365.065 289.494,365.702 289.320,367.044 289.320 C 368.386 289.320,369.023 289.147,369.180 288.738 C 369.336 288.331,369.970 288.155,371.281 288.155 C 372.313 288.155,373.252 288.004,373.366 287.819 C 373.481 287.633,374.403 287.388,375.415 287.274 C 376.428 287.160,377.320 286.875,377.398 286.640 C 377.476 286.406,378.312 286.214,379.256 286.214 C 380.521 286.214,380.971 286.061,380.971 285.631 C 380.971 285.184,381.467 285.049,383.107 285.049 C 384.746 285.049,385.243 284.913,385.243 284.466 C 385.243 284.019,385.739 283.883,387.379 283.883 C 389.018 283.883,389.515 283.748,389.515 283.301 C 389.515 282.869,389.968 282.718,391.262 282.718 C 392.223 282.718,393.010 282.544,393.010 282.330 C 393.010 282.117,393.784 281.942,394.730 281.942 C 395.681 281.942,396.691 281.700,396.990 281.401 C 397.287 281.104,397.866 280.796,398.275 280.717 C 400.056 280.374,397.631 276.512,395.631 276.507 C 395.257 276.506,394.951 276.243,394.951 275.922 C 394.951 275.602,394.777 275.340,394.563 275.340 C 394.350 275.340,394.175 275.078,394.175 274.757 C 394.175 274.437,393.913 274.175,393.592 274.175 C 393.272 274.175,393.010 273.913,393.010 273.592 C 393.010 273.272,392.748 273.010,392.427 273.010 C 392.107 273.010,391.845 272.835,391.845 272.621 C 391.845 272.408,391.583 272.233,391.262 272.233 C 390.942 272.233,390.680 272.035,390.680 271.792 C 390.680 271.550,390.243 270.946,389.709 270.451 C 389.175 269.957,388.738 269.369,388.738 269.145 C 388.738 268.921,388.555 268.738,388.331 268.738 C 388.107 268.738,387.519 268.301,387.024 267.767 C 386.529 267.233,385.926 266.796,385.684 266.796 C 385.441 266.796,385.243 266.598,385.243 266.355 C 385.243 266.113,384.806 265.509,384.272 265.015 C 383.738 264.520,383.301 263.932,383.301 263.708 C 383.301 263.484,383.039 263.301,382.718 263.301 C 382.398 263.301,382.136 263.126,382.136 262.913 C 382.136 262.699,381.874 262.524,381.553 262.524 C 381.233 262.524,380.971 262.262,380.971 261.942 C 380.971 261.621,380.709 261.359,380.388 261.359 C 380.068 261.359,379.806 261.171,379.806 260.940 C 379.806 260.395,376.499 257.087,375.953 257.087 C 375.723 257.087,375.534 256.913,375.534 256.699 C 375.534 256.485,374.485 255.262,373.204 253.981 C 371.922 252.699,370.699 251.650,370.485 251.650 C 370.272 251.650,370.097 251.480,370.097 251.272 C 370.097 251.064,369.306 250.103,368.339 249.136 C 367.373 248.170,366.411 247.379,366.203 247.379 C 365.995 247.379,365.825 247.117,365.825 246.796 C 365.825 246.476,365.657 246.214,365.450 246.214 C 365.244 246.214,364.539 245.689,363.883 245.049 C 363.228 244.408,362.436 243.883,362.123 243.883 C 361.810 243.883,361.553 243.621,361.553 243.301 C 361.553 242.981,361.366 242.718,361.137 242.718 C 360.600 242.718,359.612 241.730,359.612 241.193 C 359.612 240.964,359.350 240.777,359.029 240.777 C 358.709 240.777,358.447 240.515,358.447 240.194 C 358.447 239.874,358.184 239.612,357.864 239.612 C 357.544 239.612,357.282 239.350,357.282 239.029 C 357.282 238.709,357.113 238.447,356.907 238.447 C 356.399 238.447,354.175 236.244,354.175 235.741 C 354.175 235.520,353.913 235.340,353.592 235.340 C 353.272 235.340,353.010 235.078,353.010 234.757 C 353.010 234.437,352.748 234.175,352.427 234.175 C 352.107 234.175,351.845 233.913,351.845 233.592 C 351.845 233.272,351.664 233.010,351.443 233.010 C 350.941 233.010,348.738 230.785,348.738 230.278 C 348.738 230.072,348.476 229.903,348.155 229.903 C 347.835 229.903,347.573 229.641,347.573 229.320 C 347.573 229.000,347.311 228.738,346.990 228.738 C 346.670 228.738,346.408 228.476,346.408 228.155 C 346.408 227.835,346.227 227.573,346.006 227.573 C 345.504 227.573,343.301 225.348,343.301 224.841 C 343.301 224.635,343.039 224.466,342.718 224.466 C 342.398 224.466,342.136 224.204,342.136 223.883 C 342.136 223.563,341.949 223.301,341.720 223.301 C 341.491 223.301,339.941 221.903,338.276 220.194 C 336.610 218.485,335.050 217.087,334.808 217.087 C 334.567 217.087,334.369 216.899,334.369 216.668 C 334.369 216.438,333.596 215.477,332.652 214.532 C 331.708 213.588,330.747 212.816,330.516 212.816 C 330.286 212.816,330.097 212.636,330.097 212.418 C 330.097 212.199,329.660 211.854,329.126 211.650 C 328.592 211.447,328.155 211.102,328.155 210.883 C 328.155 210.665,327.893 210.485,327.573 210.485 C 327.252 210.485,326.990 210.223,326.990 209.903 C 326.990 209.583,326.728 209.320,326.408 209.320 C 326.087 209.320,325.825 209.138,325.825 208.916 C 325.825 207.175,322.439 206.866,321.165 208.490 C 320.814 208.938,316.130 211.262,315.579 211.262 C 315.283 211.262,314.540 211.523,313.928 211.842 C 313.316 212.161,312.258 212.423,311.576 212.425 C 310.895 212.426,310.240 212.584,310.121 212.776 C 309.767 213.350,300.718 213.636,295.922 213.226 C 288.243 212.568,284.544 212.078,284.129 211.663 C 283.908 211.442,283.047 211.262,282.214 211.262 C 280.889 211.262,279.273 210.761,277.282 209.731 C 276.776 209.470,276.671 206.137,276.489 184.618 C 276.374 170.971,276.243 159.762,276.198 159.709 C 276.153 159.655,275.854 159.612,275.534 159.612 C 275.214 159.612,274.951 159.423,274.951 159.193 C 274.951 158.650,272.806 156.505,272.263 156.505 C 272.033 156.505,271.845 156.243,271.845 155.922 C 271.845 155.602,271.583 155.340,271.262 155.340 C 270.942 155.340,270.680 155.170,270.680 154.962 C 270.680 154.469,267.279 151.068,266.786 151.068 C 266.578 151.068,266.408 150.806,266.408 150.485 C 266.408 150.165,266.146 149.903,265.825 149.903 C 265.505 149.903,265.243 149.641,265.243 149.320 C 265.243 149.000,265.083 148.738,264.887 148.738 C 264.691 148.738,263.782 148.039,262.865 147.184 C 261.949 146.330,261.061 145.631,260.891 145.631 C 260.449 145.631,259.029 144.150,259.029 143.689 C 259.029 143.476,258.767 143.301,258.447 143.301 C 258.126 143.301,257.864 143.039,257.864 142.718 C 257.864 142.398,257.602 142.136,257.282 142.136 C 256.961 142.136,256.699 141.961,256.699 141.748 C 256.699 141.534,256.437 141.359,256.117 141.359 C 255.796 141.359,255.534 141.161,255.534 140.918 C 255.534 140.676,255.097 140.073,254.563 139.578 C 254.029 139.083,253.592 138.495,253.592 138.271 C 253.592 138.047,253.409 137.864,253.185 137.864 C 252.962 137.864,252.374 137.427,251.879 136.893 C 251.384 136.359,250.780 135.922,250.538 135.922 C 250.295 135.922,250.097 135.660,250.097 135.340 C 250.097 135.019,249.922 134.757,249.709 134.757 C 249.495 134.757,249.320 134.495,249.320 134.175 C 249.320 133.854,249.058 133.592,248.738 133.592 C 248.417 133.592,248.155 133.330,248.155 133.010 C 248.155 132.689,247.984 132.427,247.774 132.427 C 247.564 132.427,246.009 131.029,244.319 129.320 C 242.628 127.612,241.052 126.214,240.817 126.214 C 240.581 126.214,240.388 126.025,240.388 125.794 C 240.388 125.247,235.918 120.777,235.371 120.777 C 235.140 120.777,234.951 120.588,234.951 120.358 C 234.951 120.127,234.179 119.166,233.235 118.222 C 232.290 117.277,231.329 116.505,231.099 116.505 C 230.868 116.505,230.680 116.243,230.680 115.922 C 230.680 115.602,230.511 115.340,230.305 115.340 C 230.098 115.340,229.393 114.816,228.738 114.175 C 228.082 113.534,227.290 113.010,226.977 113.010 C 226.664 113.010,226.408 112.748,226.408 112.427 C 226.408 112.107,226.221 111.845,225.992 111.845 C 225.454 111.845,224.466 110.857,224.466 110.319 C 224.466 110.090,224.204 109.903,223.883 109.903 C 223.563 109.903,223.301 109.641,223.301 109.320 C 223.301 109.000,223.039 108.738,222.718 108.738 C 222.398 108.738,222.136 108.476,222.136 108.155 C 222.136 107.835,221.874 107.573,221.553 107.573 C 221.233 107.573,220.971 107.311,220.971 106.990 C 220.971 106.670,220.784 106.408,220.555 106.408 C 220.017 106.408,219.029 105.420,219.029 104.882 C 219.029 104.653,218.767 104.466,218.447 104.466 C 218.126 104.466,217.864 104.204,217.864 103.883 C 217.864 103.563,217.602 103.301,217.282 103.301 C 216.961 103.301,216.699 103.039,216.699 102.718 C 216.699 102.398,216.538 102.136,216.341 102.136 C 216.143 102.136,215.444 101.598,214.787 100.941 C 214.130 100.284,213.592 99.585,213.592 99.388 C 213.592 99.190,213.330 99.029,213.010 99.029 C 212.689 99.029,212.427 98.767,212.427 98.447 C 212.427 98.126,212.165 97.864,211.845 97.864 C 211.524 97.864,211.262 97.602,211.262 97.282 C 211.262 96.961,211.075 96.699,210.846 96.699 C 210.308 96.699,209.320 95.711,209.320 95.173 C 209.320 94.945,209.058 94.757,208.738 94.757 C 208.417 94.757,208.155 94.495,208.155 94.175 C 208.155 93.854,207.893 93.592,207.573 93.592 C 207.252 93.592,206.990 93.330,206.990 93.010 C 206.990 92.689,206.835 92.427,206.645 92.427 C 206.178 92.427,202.718 88.990,202.718 88.526 C 202.718 88.322,202.539 88.155,202.319 88.155 C 202.099 88.155,200.542 86.757,198.858 85.049 C 197.175 83.340,195.607 81.942,195.374 81.942 C 195.142 81.942,194.951 81.763,194.951 81.544 C 194.951 81.325,194.515 80.980,193.981 80.777 C 193.447 80.574,193.010 80.228,193.010 80.010 C 193.010 79.791,192.748 79.612,192.427 79.612 C 192.107 79.612,191.845 79.350,191.845 79.029 C 191.845 78.709,191.583 78.447,191.262 78.447 C 190.942 78.447,190.680 78.258,190.680 78.028 C 190.680 77.485,188.535 75.340,187.991 75.340 C 187.761 75.340,187.573 75.078,187.573 74.757 C 187.573 74.437,187.311 74.175,186.990 74.175 C 186.670 74.175,186.408 73.913,186.408 73.592 C 186.408 73.272,186.146 73.010,185.825 73.010 C 185.505 73.010,185.243 72.829,185.243 72.608 C 185.243 72.106,183.018 69.903,182.511 69.903 C 182.305 69.903,182.136 69.641,182.136 69.320 C 182.136 69.000,181.874 68.738,181.553 68.738 C 181.233 68.738,180.971 68.550,180.971 68.320 C 180.971 67.776,178.826 65.631,178.282 65.631 C 178.052 65.631,177.864 65.369,177.864 65.049 C 177.864 64.728,177.602 64.466,177.282 64.466 C 176.961 64.466,176.699 64.204,176.699 63.883 C 176.699 63.563,176.437 63.301,176.117 63.301 C 175.796 63.301,175.534 63.132,175.534 62.926 C 175.534 62.419,173.331 60.194,172.829 60.194 C 172.608 60.194,172.427 59.932,172.427 59.612 C 172.427 59.291,172.165 59.029,171.845 59.029 C 171.524 59.029,171.262 58.767,171.262 58.447 C 171.262 58.126,171.000 57.864,170.680 57.864 C 170.359 57.864,170.097 57.631,170.097 57.347 C 170.097 57.063,169.660 56.596,169.126 56.311 C 168.592 56.025,168.155 55.558,168.155 55.274 C 168.155 54.990,167.893 54.757,167.573 54.757 C 167.252 54.757,166.990 54.495,166.990 54.175 C 166.990 53.854,166.728 53.592,166.408 53.592 C 166.087 53.592,165.825 53.330,165.825 53.010 C 165.825 52.689,165.670 52.427,165.480 52.427 C 165.291 52.427,164.372 51.684,163.439 50.777 C 162.506 49.869,161.162 48.689,160.451 48.155 C 159.740 47.621,158.662 46.704,158.056 46.117 C 157.449 45.529,156.765 45.049,156.535 45.049 C 156.305 45.049,156.117 44.786,156.117 44.466 C 156.117 44.146,155.854 43.883,155.534 43.883 C 155.214 43.883,154.951 43.693,154.951 43.461 C 154.951 42.945,151.575 39.612,151.053 39.612 C 150.848 39.612,150.680 39.423,150.680 39.193 C 150.680 38.647,147.372 35.340,146.827 35.340 C 146.596 35.340,146.408 35.078,146.408 34.757 C 146.408 34.437,146.146 34.175,145.825 34.175 C 145.505 34.175,145.243 33.986,145.243 33.756 C 145.243 33.210,141.936 29.903,141.390 29.903 C 141.159 29.903,140.971 29.641,140.971 29.320 C 140.971 29.000,140.709 28.738,140.388 28.738 C 140.068 28.738,139.806 28.550,139.806 28.320 C 139.806 27.776,137.661 25.631,137.117 25.631 C 136.887 25.631,136.699 25.369,136.699 25.049 C 136.699 24.728,136.437 24.466,136.117 24.466 C 135.796 24.466,135.534 24.298,135.534 24.093 C 135.534 23.570,132.201 20.194,131.685 20.194 C 131.452 20.194,131.262 19.932,131.262 19.612 C 131.262 19.291,131.000 19.029,130.680 19.029 C 130.359 19.029,130.097 18.767,130.097 18.447 C 130.097 18.126,129.937 17.864,129.741 17.864 C 129.546 17.864,128.636 17.165,127.720 16.311 C 126.803 15.456,125.915 14.757,125.745 14.757 C 125.303 14.757,123.883 13.277,123.883 12.816 C 123.883 12.602,123.621 12.427,123.301 12.427 C 122.981 12.427,122.718 12.165,122.718 11.845 C 122.718 11.524,122.548 11.262,122.340 11.262 C 121.848 11.262,118.447 7.861,118.447 7.368 C 118.447 7.160,118.184 6.990,117.864 6.990 C 117.544 6.990,117.282 6.728,117.282 6.408 C 117.282 6.087,117.019 5.825,116.699 5.825 C 116.379 5.825,116.117 5.650,116.117 5.437 C 116.117 5.223,115.854 5.049,115.534 5.049 C 115.214 5.049,114.951 4.786,114.951 4.466 C 114.951 4.146,114.777 3.883,114.563 3.883 C 114.350 3.883,114.175 3.621,114.175 3.301 C 114.175 2.981,113.913 2.718,113.592 2.718 C 113.272 2.718,113.010 2.456,113.010 2.136 C 113.010 1.715,112.578 1.553,111.456 1.553 L 109.903 1.553 109.903 3.301 M96.861 121.012 C 97.406 121.221,97.476 122.819,97.476 135.005 C 97.476 150.442,97.327 149.733,100.319 148.591 C 102.589 147.724,112.775 147.691,114.817 148.544 C 115.584 148.864,116.527 149.126,116.914 149.126 C 117.872 149.126,122.550 151.324,123.799 152.361 C 125.781 154.006,128.527 157.005,128.779 157.799 C 128.919 158.242,129.274 158.844,129.566 159.136 C 129.858 159.428,130.097 159.969,130.097 160.338 C 130.097 160.708,130.256 161.176,130.449 161.379 C 132.229 163.242,132.790 170.432,132.803 191.546 L 132.816 210.859 131.942 211.073 C 131.461 211.191,127.398 211.238,122.913 211.178 L 114.757 211.068 114.544 191.262 C 114.324 170.864,114.316 170.766,112.701 167.573 C 111.109 164.426,106.270 162.784,101.942 163.922 C 101.087 164.147,99.777 164.452,99.029 164.599 L 97.670 164.867 97.476 187.968 L 97.282 211.068 88.787 211.173 C 82.848 211.246,80.132 211.144,79.758 210.834 C 79.310 210.462,79.223 203.456,79.223 167.612 C 79.223 119.047,78.929 123.111,82.449 123.101 C 83.558 123.098,85.165 122.843,86.019 122.535 C 86.874 122.228,88.447 121.966,89.515 121.953 C 90.583 121.940,92.155 121.678,93.010 121.370 C 94.706 120.759,95.910 120.647,96.861 121.012 M161.119 121.761 C 171.574 127.012,168.118 142.136,156.463 142.136 C 147.289 142.136,142.356 131.718,148.126 124.527 C 150.946 121.013,157.045 119.715,161.119 121.761 M198.472 121.179 C 199.202 121.570,199.223 122.258,199.230 145.936 L 199.236 170.291 200.880 168.516 C 205.668 163.347,207.709 161.093,208.989 159.560 C 209.768 158.627,210.953 157.252,211.623 156.505 C 212.293 155.757,213.737 154.056,214.833 152.724 C 216.265 150.983,217.162 150.240,218.024 150.080 C 220.320 149.653,237.212 150.065,237.706 150.559 C 238.276 151.131,231.225 159.150,219.417 171.361 C 213.667 177.307,213.804 176.580,217.670 180.680 C 221.349 184.581,222.426 185.829,224.790 188.932 C 225.767 190.214,226.676 191.350,226.812 191.456 C 227.625 192.098,233.959 201.324,234.811 203.107 C 234.964 203.427,235.198 203.777,235.332 203.883 C 235.649 204.137,236.964 206.326,238.171 208.610 C 239.583 211.283,239.661 211.262,228.484 211.262 C 218.756 211.262,218.672 211.255,218.058 210.388 C 217.718 209.908,215.596 206.719,213.343 203.301 C 211.090 199.884,209.131 197.000,208.989 196.893 C 208.847 196.786,208.274 196.000,207.715 195.146 C 207.157 194.291,205.026 191.845,202.979 189.709 L 199.258 185.825 199.241 198.108 C 199.227 208.043,199.121 210.475,198.689 210.834 C 198.315 211.144,195.548 211.246,189.466 211.173 L 180.777 211.068 180.677 167.573 C 180.563 118.331,180.216 123.107,183.910 123.107 C 185.018 123.107,186.552 122.845,187.319 122.524 C 188.086 122.204,189.636 121.939,190.764 121.936 C 191.892 121.933,193.515 121.678,194.369 121.370 C 196.239 120.697,197.465 120.640,198.472 121.179 M164.829 150.282 L 165.825 150.660 165.819 180.476 C 165.816 196.874,165.673 210.513,165.500 210.784 C 165.259 211.164,163.186 211.253,156.477 211.173 L 147.767 211.068 147.666 180.971 C 147.573 153.021,147.613 150.839,148.226 150.388 C 149.038 149.792,163.299 149.700,164.829 150.282 M295.397 180.473 C 294.688 184.760,295.119 196.442,296.009 197.065 C 297.202 197.901,304.289 197.918,305.878 197.090 C 306.490 196.771,307.283 196.509,307.640 196.507 C 307.997 196.506,308.805 195.990,309.434 195.361 C 310.666 194.128,311.337 192.542,310.488 192.868 C 310.218 192.972,309.644 192.609,309.214 192.062 C 308.784 191.515,308.239 191.068,308.002 191.068 C 307.766 191.068,307.573 190.806,307.573 190.485 C 307.573 190.165,307.311 189.903,306.990 189.903 C 306.670 189.903,306.408 189.641,306.408 189.320 C 306.408 189.000,306.146 188.738,305.825 188.738 C 305.505 188.738,305.243 188.505,305.243 188.221 C 305.243 187.937,304.806 187.470,304.272 187.184 C 303.738 186.899,303.301 186.432,303.301 186.148 C 303.301 185.864,303.039 185.631,302.718 185.631 C 302.398 185.631,302.136 185.369,302.136 185.049 C 302.136 184.728,301.954 184.466,301.731 184.466 C 301.508 184.466,300.411 183.549,299.294 182.427 C 295.619 178.739,295.679 178.769,295.397 180.473 M260.227 190.971 C 265.289 193.699,267.270 197.794,266.349 203.628 C 265.873 206.647,262.490 211.262,260.754 211.262 C 260.495 211.262,259.782 211.523,259.171 211.842 C 258.493 212.196,256.996 212.422,255.340 212.422 C 253.684 212.422,252.187 212.196,251.509 211.842 C 250.897 211.523,250.166 211.262,249.884 211.262 C 249.603 211.262,248.499 210.411,247.431 209.371 C 241.795 203.882,243.166 194.859,250.214 191.057 C 252.016 190.085,258.480 190.029,260.227 190.971 " stroke="none" fill="#0c0c04" fill-rule="evenodd"></path><path id="path3" d="M93.010 121.370 C 92.155 121.678,90.583 121.940,89.515 121.953 C 88.447 121.966,86.874 122.228,86.019 122.535 C 85.165 122.843,83.558 123.098,82.449 123.101 C 78.929 123.111,79.223 119.047,79.223 167.612 C 79.223 203.456,79.310 210.462,79.758 210.834 C 80.132 211.144,82.848 211.246,88.787 211.173 L 97.282 211.068 97.476 187.968 L 97.670 164.867 99.029 164.599 C 99.777 164.452,101.087 164.147,101.942 163.922 C 106.270 162.784,111.109 164.426,112.701 167.573 C 114.316 170.766,114.324 170.864,114.544 191.262 L 114.757 211.068 122.913 211.178 C 127.398 211.238,131.461 211.191,131.942 211.073 L 132.816 210.859 132.803 191.546 C 132.790 170.432,132.229 163.242,130.449 161.379 C 130.256 161.176,130.097 160.708,130.097 160.338 C 130.097 159.969,129.858 159.428,129.566 159.136 C 129.274 158.844,128.919 158.242,128.779 157.799 C 128.527 157.005,125.781 154.006,123.799 152.361 C 122.550 151.324,117.872 149.126,116.914 149.126 C 116.527 149.126,115.584 148.864,114.817 148.544 C 112.775 147.691,102.589 147.724,100.319 148.591 C 97.327 149.733,97.476 150.442,97.476 135.005 C 97.476 122.819,97.406 121.221,96.861 121.012 C 95.910 120.647,94.706 120.759,93.010 121.370 M151.621 121.948 C 141.457 126.963,145.096 142.136,156.463 142.136 C 162.863 142.136,167.144 137.855,167.144 131.456 C 167.144 123.109,159.169 118.224,151.621 121.948 M194.369 121.370 C 193.515 121.678,191.892 121.933,190.764 121.936 C 189.636 121.939,188.086 122.204,187.319 122.524 C 186.552 122.845,185.018 123.107,183.910 123.107 C 180.216 123.107,180.563 118.331,180.677 167.573 L 180.777 211.068 189.466 211.173 C 195.548 211.246,198.315 211.144,198.689 210.834 C 199.121 210.475,199.227 208.043,199.241 198.108 L 199.258 185.825 202.979 189.709 C 205.026 191.845,207.157 194.291,207.715 195.146 C 208.274 196.000,208.847 196.786,208.989 196.893 C 209.131 197.000,211.090 199.884,213.343 203.301 C 215.596 206.719,217.718 209.908,218.058 210.388 C 218.672 211.255,218.756 211.262,228.484 211.262 C 239.661 211.262,239.583 211.283,238.171 208.610 C 236.964 206.326,235.649 204.137,235.332 203.883 C 235.198 203.777,234.964 203.427,234.811 203.107 C 233.959 201.324,227.625 192.098,226.812 191.456 C 226.676 191.350,225.767 190.214,224.790 188.932 C 222.426 185.829,221.349 184.581,217.670 180.680 C 213.804 176.580,213.667 177.307,219.417 171.361 C 231.225 159.150,238.276 151.131,237.706 150.559 C 237.212 150.065,220.320 149.653,218.024 150.080 C 217.162 150.240,216.265 150.983,214.833 152.724 C 213.737 154.056,212.293 155.757,211.623 156.505 C 210.953 157.252,209.768 158.627,208.989 159.560 C 207.709 161.093,205.668 163.347,200.880 168.516 L 199.236 170.291 199.230 145.936 C 199.222 117.734,199.571 119.496,194.369 121.370 M160.435 122.099 C 168.573 125.499,168.593 137.405,160.467 140.800 C 153.791 143.589,146.408 138.757,146.408 131.598 C 146.408 124.271,153.743 119.303,160.435 122.099 M97.180 135.437 L 97.282 149.320 98.439 149.452 C 99.075 149.524,100.566 149.290,101.751 148.931 C 105.504 147.795,113.832 148.494,118.836 150.365 C 123.537 152.123,128.540 157.140,129.801 161.359 C 129.929 161.786,130.433 163.447,130.922 165.049 C 131.802 167.930,131.812 168.189,131.828 189.320 L 131.845 210.680 124.466 210.790 C 120.408 210.851,116.712 210.808,116.252 210.695 L 115.417 210.490 115.250 191.167 C 115.091 172.809,115.042 171.721,114.264 169.364 C 113.475 166.972,111.463 164.272,110.469 164.272 C 110.223 164.272,109.456 163.990,108.765 163.644 C 107.315 162.921,100.668 163.010,99.749 163.765 C 99.460 164.003,98.786 164.258,98.252 164.332 L 97.282 164.466 97.181 187.469 L 97.081 210.472 96.211 210.686 C 95.732 210.804,91.932 210.850,87.767 210.790 L 80.194 210.680 80.102 167.767 C 80.050 143.465,80.159 124.620,80.353 124.315 C 80.566 123.979,81.845 123.663,83.746 123.476 C 85.423 123.311,87.407 122.986,88.153 122.753 C 88.899 122.520,90.297 122.318,91.260 122.303 C 92.222 122.288,93.359 122.125,93.786 121.942 C 94.214 121.758,95.129 121.596,95.820 121.581 L 97.078 121.553 97.180 135.437 M198.058 146.172 C 198.058 172.572,198.033 172.246,199.929 170.563 C 200.861 169.735,204.954 165.252,207.767 161.977 C 213.141 155.720,215.047 153.526,216.311 152.143 L 217.670 150.656 227.529 150.765 L 237.389 150.874 233.412 155.340 C 228.951 160.350,223.406 166.285,217.294 172.590 L 213.184 176.830 214.262 177.972 C 214.855 178.600,215.864 179.663,216.505 180.334 C 217.829 181.721,221.104 185.372,222.466 186.979 C 227.530 192.954,237.577 207.944,237.774 209.818 L 237.864 210.680 228.738 210.775 C 218.227 210.884,219.449 211.294,216.491 206.666 C 209.463 195.668,200.938 185.243,198.973 185.243 L 198.069 185.243 197.966 197.961 L 197.864 210.680 189.709 210.680 L 181.553 210.680 181.450 167.767 L 181.346 124.854 182.172 124.175 C 182.720 123.725,183.672 123.494,184.994 123.491 C 186.092 123.489,187.848 123.226,188.897 122.908 C 189.945 122.590,191.605 122.327,192.586 122.324 C 193.567 122.321,194.631 122.149,194.951 121.942 C 195.272 121.735,196.102 121.563,196.796 121.559 L 198.058 121.553 198.058 146.172 M148.226 150.388 C 147.613 150.839,147.573 153.021,147.666 180.971 L 147.767 211.068 156.477 211.173 C 163.186 211.253,165.259 211.164,165.500 210.784 C 165.673 210.513,165.816 196.874,165.819 180.476 L 165.825 150.660 164.829 150.282 C 163.299 149.700,149.038 149.792,148.226 150.388 M164.954 180.680 L 164.854 210.680 156.699 210.680 L 148.544 210.680 148.444 180.680 L 148.345 150.680 156.699 150.680 L 165.053 150.680 164.954 180.680 M276.632 185.977 C 276.690 206.385,276.775 209.469,277.282 209.731 C 279.271 210.760,280.889 211.262,282.214 211.262 C 283.047 211.262,283.908 211.442,284.129 211.663 C 284.544 212.078,288.243 212.568,295.922 213.226 C 300.718 213.636,309.767 213.350,310.121 212.776 C 310.240 212.584,310.895 212.426,311.576 212.425 C 312.258 212.423,313.316 212.161,313.928 211.842 C 314.540 211.523,315.283 211.262,315.579 211.262 C 316.135 211.262,320.819 208.934,321.165 208.486 C 321.272 208.348,321.971 207.969,322.718 207.644 C 323.466 207.319,323.783 207.039,323.423 207.022 C 322.633 206.984,321.372 207.514,319.806 208.545 C 319.165 208.967,318.379 209.414,318.058 209.539 C 317.738 209.663,317.168 209.930,316.791 210.132 C 315.706 210.712,312.710 211.673,310.538 212.137 C 306.224 213.059,288.703 212.459,285.301 211.273 C 284.671 211.053,283.738 210.874,283.226 210.874 C 282.715 210.874,281.256 210.568,279.984 210.194 L 277.671 209.515 277.653 187.184 C 277.638 169.066,277.534 164.635,277.100 163.689 C 276.639 162.686,276.574 165.785,276.632 185.977 M62.681 172.500 C 62.785 172.860,63.059 173.858,63.290 174.717 C 63.521 175.575,63.876 176.380,64.078 176.505 C 67.662 178.720,68.060 194.474,64.684 200.497 C 62.365 204.634,56.538 209.709,54.106 209.709 C 53.839 209.709,53.436 210.052,53.212 210.471 C 52.824 211.195,52.857 211.205,53.878 210.685 C 54.468 210.383,55.214 210.039,55.534 209.920 C 58.826 208.696,63.566 204.199,65.567 200.401 C 68.744 194.370,68.603 182.505,65.290 177.087 C 64.833 176.340,64.016 174.854,63.475 173.786 C 62.935 172.718,62.577 172.140,62.681 172.500 M294.835 180.660 C 294.058 181.437,294.189 196.657,294.979 197.448 C 295.673 198.141,305.782 198.368,306.195 197.700 C 306.317 197.503,306.983 197.221,307.674 197.074 C 309.083 196.775,310.291 195.865,310.291 195.104 C 310.291 194.804,309.875 194.986,309.264 195.553 C 308.699 196.076,307.956 196.506,307.613 196.507 C 307.271 196.509,306.490 196.771,305.878 197.090 C 305.102 197.495,303.560 197.670,300.775 197.670 C 294.781 197.670,295.072 198.163,295.220 188.249 C 295.286 183.818,295.331 180.194,295.320 180.194 C 295.310 180.194,295.091 180.404,294.835 180.660 M250.214 191.057 C 243.166 194.859,241.795 203.882,247.431 209.371 C 248.499 210.411,249.603 211.262,249.884 211.262 C 250.166 211.262,250.897 211.523,251.509 211.842 C 252.187 212.196,253.684 212.422,255.340 212.422 C 256.996 212.422,258.493 212.196,259.171 211.842 C 259.782 211.523,260.495 211.262,260.754 211.262 C 262.490 211.262,265.873 206.647,266.349 203.628 C 267.270 197.794,265.289 193.699,260.227 190.971 C 258.480 190.029,252.016 190.085,250.214 191.057 M259.522 191.418 C 263.873 193.283,265.762 196.246,265.737 201.165 C 265.709 206.650,264.285 208.754,258.873 211.312 C 254.161 213.539,246.788 210.012,245.250 204.795 C 242.573 195.713,251.036 187.780,259.522 191.418 " stroke="none" fill="#2c2d14" fill-rule="evenodd"></path><path id="path4" d="M276.206 142.077 C 276.100 163.894,275.514 161.385,282.306 168.187 C 292.514 178.411,295.534 180.974,295.534 179.417 C 295.534 179.204,295.272 179.029,294.951 179.029 C 294.631 179.029,294.369 178.854,294.369 178.641 C 294.369 178.427,294.213 178.252,294.022 178.252 C 293.666 178.252,278.245 163.110,277.253 161.785 C 276.798 161.179,276.663 157.701,276.497 142.368 L 276.296 123.689 276.206 142.077 M62.913 132.950 C 63.447 133.232,63.966 133.394,64.066 133.312 C 64.340 133.088,63.194 132.439,62.524 132.439 C 62.203 132.439,62.377 132.668,62.913 132.950 M62.943 139.515 C 62.926 139.888,62.728 140.194,62.501 140.194 C 62.275 140.194,62.212 140.391,62.361 140.632 C 62.706 141.192,63.439 139.982,63.165 139.306 C 63.058 139.042,62.960 139.134,62.943 139.515 M37.476 146.019 C 37.344 146.233,37.498 146.408,37.818 146.408 C 38.139 146.408,38.509 146.233,38.641 146.019 C 38.773 145.806,38.619 145.631,38.298 145.631 C 37.978 145.631,37.608 145.806,37.476 146.019 M49.709 146.990 C 49.975 147.311,50.367 147.573,50.581 147.573 C 50.797 147.573,50.755 147.315,50.485 146.990 C 50.220 146.670,49.827 146.408,49.614 146.408 C 49.397 146.408,49.439 146.665,49.709 146.990 M314.748 148.202 C 315.094 148.547,315.494 148.713,315.638 148.569 C 315.782 148.425,315.643 148.145,315.329 147.946 C 314.411 147.366,314.065 147.518,314.748 148.202 M382.352 149.289 C 383.166 149.883,383.534 149.818,383.123 149.152 C 382.982 148.924,382.582 148.738,382.233 148.738 C 381.703 148.738,381.722 148.828,382.352 149.289 M29.681 151.584 C 29.572 151.867,29.686 152.610,29.933 153.234 C 30.181 153.858,30.462 154.160,30.557 153.905 C 30.652 153.650,30.552 153.109,30.335 152.702 C 30.057 152.184,30.073 151.830,30.387 151.516 C 30.725 151.178,30.718 151.068,30.357 151.068 C 30.094 151.068,29.790 151.300,29.681 151.584 M388.706 152.755 C 389.262 153.447,390.680 154.356,390.680 154.021 C 390.680 153.921,390.112 153.441,389.417 152.954 C 388.522 152.326,388.315 152.268,388.706 152.755 M347.705 154.339 C 347.740 154.979,348.021 155.542,348.350 155.631 C 348.739 155.735,348.784 155.681,348.486 155.466 C 348.240 155.290,347.950 154.709,347.842 154.175 C 347.671 153.339,347.652 153.361,347.705 154.339 M328.774 157.864 C 329.123 158.398,329.563 158.835,329.751 158.835 C 329.938 158.835,329.712 158.398,329.248 157.864 C 328.783 157.330,328.344 156.893,328.271 156.893 C 328.197 156.893,328.424 157.330,328.774 157.864 M348.750 161.797 C 348.743 162.252,349.000 162.841,349.320 163.107 C 350.116 163.767,350.124 162.771,349.333 161.725 C 348.774 160.986,348.762 160.987,348.750 161.797 M10.510 161.748 C 10.510 161.961,10.767 162.475,11.080 162.890 C 11.394 163.304,11.650 163.469,11.650 163.255 C 11.650 163.042,11.394 162.528,11.080 162.113 C 10.767 161.698,10.510 161.534,10.510 161.748 M362.330 163.333 C 361.725 163.669,361.587 163.874,361.965 163.878 C 362.298 163.881,362.909 163.627,363.324 163.313 C 364.266 162.600,363.628 162.613,362.330 163.333 M369.103 163.313 C 369.518 163.627,370.032 163.883,370.246 163.883 C 370.459 163.883,370.295 163.627,369.880 163.313 C 369.465 163.000,368.951 162.743,368.738 162.743 C 368.524 162.743,368.689 163.000,369.103 163.313 M394.951 163.648 C 394.951 163.945,395.214 164.289,395.534 164.412 C 396.185 164.662,396.217 164.598,395.881 163.721 C 395.590 162.962,394.951 162.912,394.951 163.648 M301.534 164.234 C 301.331 164.427,300.816 164.669,300.388 164.772 C 299.631 164.954,299.631 164.960,300.411 165.003 C 300.851 165.028,301.550 164.792,301.965 164.478 C 302.379 164.165,302.535 163.903,302.311 163.896 C 302.086 163.889,301.737 164.041,301.534 164.234 M332.634 165.370 C 332.780 165.654,333.040 166.353,333.212 166.924 C 333.464 167.756,333.532 167.803,333.559 167.162 C 333.577 166.722,333.317 166.023,332.981 165.608 C 332.645 165.194,332.489 165.087,332.634 165.370 M311.856 167.379 C 311.857 168.048,312.505 169.194,312.729 168.921 C 312.812 168.820,312.649 168.301,312.368 167.767 C 312.086 167.232,311.856 167.058,311.856 167.379 M16.311 169.436 C 16.311 169.509,16.748 169.949,17.282 170.413 C 17.816 170.877,18.252 171.103,18.252 170.916 C 18.252 170.728,17.816 170.289,17.282 169.939 C 16.748 169.589,16.311 169.362,16.311 169.436 M62.329 173.304 C 62.449 173.910,62.284 174.872,61.950 175.518 C 61.625 176.146,61.359 177.086,61.359 177.606 C 61.359 178.126,61.098 179.053,60.779 179.664 C 60.460 180.276,60.198 181.247,60.197 181.822 C 60.195 182.397,60.030 182.969,59.828 183.093 C 59.627 183.217,59.345 184.104,59.201 185.062 C 59.057 186.021,58.785 186.901,58.596 187.018 C 58.407 187.135,58.252 187.738,58.252 188.359 C 58.252 188.980,58.010 190.062,57.715 190.764 C 57.126 192.160,56.367 194.874,56.056 196.699 C 55.947 197.340,55.610 198.415,55.307 199.088 C 55.005 199.761,54.757 200.755,54.757 201.298 C 54.757 201.840,54.593 202.386,54.391 202.510 C 54.190 202.635,53.908 203.521,53.764 204.480 C 53.620 205.439,53.348 206.319,53.159 206.435 C 52.970 206.552,52.816 207.326,52.816 208.155 C 52.816 208.984,52.642 209.770,52.429 209.902 C 52.217 210.033,51.857 210.488,51.629 210.913 C 51.253 211.617,51.285 211.643,51.989 211.203 C 52.712 210.751,53.617 208.463,54.729 204.272 C 55.254 202.292,56.157 199.088,56.918 196.505 C 57.201 195.544,57.686 193.796,57.997 192.621 C 58.876 189.302,59.835 185.921,60.201 184.854 C 60.384 184.320,60.654 183.278,60.802 182.537 C 60.949 181.796,61.202 180.923,61.363 180.595 C 61.728 179.854,62.526 176.892,62.778 175.340 C 62.882 174.699,62.776 173.738,62.543 173.204 L 62.118 172.233 62.329 173.304 M396.129 173.472 C 396.116 174.380,396.702 174.993,397.048 174.432 C 397.163 174.247,397.006 173.763,396.699 173.358 C 396.160 172.646,396.141 172.649,396.129 173.472 M347.239 178.654 C 346.035 179.657,346.578 179.645,347.855 178.641 C 348.398 178.214,348.688 177.870,348.499 177.877 C 348.310 177.884,347.743 178.234,347.239 178.654 M335.251 180.583 C 335.251 181.544,335.327 181.937,335.420 181.456 C 335.512 180.976,335.512 180.189,335.420 179.709 C 335.327 179.228,335.251 179.621,335.251 180.583 M334.459 185.631 C 334.459 186.379,334.539 186.684,334.637 186.311 C 334.734 185.937,334.734 185.325,334.637 184.951 C 334.539 184.578,334.459 184.883,334.459 185.631 M12.561 191.667 C 12.212 192.578,12.589 192.685,13.125 191.827 C 13.425 191.347,13.451 191.068,13.195 191.068 C 12.973 191.068,12.688 191.338,12.561 191.667 M11.773 194.078 C 11.640 194.451,11.457 194.932,11.368 195.146 C 11.278 195.359,11.480 195.195,11.816 194.780 C 12.426 194.027,12.611 193.398,12.221 193.398 C 12.107 193.398,11.906 193.704,11.773 194.078 M310.695 194.398 C 310.680 195.591,320.430 205.950,322.248 206.672 C 323.391 207.126,324.169 207.018,323.301 206.526 C 321.842 205.699,311.753 195.537,311.231 194.369 L 310.710 193.204 310.695 194.398 M31.456 195.863 C 32.522 196.425,32.836 196.390,32.443 195.754 C 32.302 195.526,31.804 195.342,31.336 195.346 C 30.520 195.351,30.525 195.372,31.456 195.863 M346.475 206.939 C 346.972 207.552,347.440 208.001,347.514 207.937 C 347.724 207.755,346.254 205.851,345.893 205.837 C 345.716 205.831,345.978 206.326,346.475 206.939 M18.006 211.847 C 18.617 212.166,19.316 212.421,19.559 212.413 C 20.194 212.394,18.172 211.292,17.476 211.278 C 17.155 211.272,17.394 211.528,18.006 211.847 " stroke="none" fill="#6c7434" fill-rule="evenodd"></path></g></svg>